<svg width="226px" height="294px"
 viewBox="0.00 0.00 226.32 294.32" xmlns="http://www.w3.org/2000/svg" xmlns:xlink="http://www.w3.org/1999/xlink"><g id="graph0" class="graph" transform=" rotate(0) translate(4 290.32)">
<title>JIG</title>
<polygon fill="white" stroke="transparent" points="-4,4 -4,-290.32 222.32,-290.32 222.32,4 -4,4"/>
<text text-anchor="middle" x="109.16" y="-15.62" font-family="Times,serif" font-size="14.00">区分使用図 [2020.2.4]</text>
<g id="clust1" class="cluster">
<title>cluster_legend</title>
<polygon fill="none" stroke="black" points="8,-38.82 8,-173.82 99.1,-173.82 99.1,-38.82 8,-38.82"/>
<text text-anchor="middle" x="53.55" y="-158.62" font-family="Times,serif" font-size="14.00">凡例</text>
</g>
<!-- enum -->
<g id="node1" class="node">
<title>enum</title>
<polygon fill="#eedd82" stroke="black" points="80.55,-136.82 26.55,-136.82 26.55,-100.82 80.55,-100.82 80.55,-136.82"/>
<text text-anchor="middle" x="53.55" y="-114.62" font-family="Times,serif" font-size="14.00">enum</text>
</g>
<!-- enum以外 -->
<g id="node2" class="node">
<title>enum以外</title>
<polygon fill="lightyellow" stroke="black" points="91.16,-82.82 15.95,-82.82 15.95,-46.82 91.16,-46.82 91.16,-82.82"/>
<text text-anchor="middle" x="53.55" y="-65.03" font-family="Times,serif" font-size="14.00">enum以外</text>
</g>
<!-- jig.tutorial.domain.model.book.BookType -->
<g id="node3" class="node">
<title>jig.tutorial.domain.model.book.BookType</title>
<polygon fill="#eedd82" stroke="black" points="209.84,-225.32 135.59,-225.32 135.59,-182.32 209.84,-182.32 209.84,-225.32"/>
<text text-anchor="middle" x="172.71" y="-210.12" font-family="Times,serif" font-size="14.00">本種別</text>
<text text-anchor="middle" x="172.71" y="-189.12" font-family="Times,serif" font-size="14.00">BookType</text>
</g>
<!-- jig.tutorial.domain.model.member.MemberType -->
<g id="node4" class="node">
<title>jig.tutorial.domain.model.member.MemberType</title>
<polygon fill="#eedd82" stroke="black" points="218.43,-286.32 127,-286.32 127,-243.32 218.43,-243.32 218.43,-286.32"/>
<text text-anchor="middle" x="172.71" y="-271.12" font-family="Times,serif" font-size="14.00">会員種別</text>
<text text-anchor="middle" x="172.71" y="-250.12" font-family="Times,serif" font-size="14.00">MemberType</text>
</g>
<!-- jig.tutorial.domain.model.member.Member -->
<g id="node5" class="node">
<title>jig.tutorial.domain.model.member.Member</title>
<polygon fill="lightyellow" stroke="black" points="85.48,-286.32 21.62,-286.32 21.62,-243.32 85.48,-243.32 85.48,-286.32"/>
<text text-anchor="middle" x="53.55" y="-271.12" font-family="Times,serif" font-size="14.00">会員</text>
<text text-anchor="middle" x="53.55" y="-250.12" font-family="Times,serif" font-size="14.00">Member</text>
</g>
<!-- jig.tutorial.domain.model.member.Member&#45;&gt;jig.tutorial.domain.model.member.MemberType -->
<g id="edge1" class="edge">
<title>jig.tutorial.domain.model.member.Member&#45;&gt;jig.tutorial.domain.model.member.MemberType</title>
<path fill="none" stroke="black" d="M85.33,-264.82C94.99,-264.82 105.96,-264.82 116.77,-264.82"/>
<polygon fill="black" stroke="black" points="117.03,-268.32 127.03,-264.82 117.03,-261.32 117.03,-268.32"/>
</g>
<!-- jig.tutorial.domain.model.book.Book -->
<g id="node6" class="node">
<title>jig.tutorial.domain.model.book.Book</title>
<polygon fill="lightyellow" stroke="black" points="80.55,-225.32 26.55,-225.32 26.55,-182.32 80.55,-182.32 80.55,-225.32"/>
<text text-anchor="middle" x="53.55" y="-210.12" font-family="Times,serif" font-size="14.00">書籍</text>
<text text-anchor="middle" x="53.55" y="-189.12" font-family="Times,serif" font-size="14.00">Book</text>
</g>
<!-- jig.tutorial.domain.model.book.Book&#45;&gt;jig.tutorial.domain.model.book.BookType -->
<g id="edge2" class="edge">
<title>jig.tutorial.domain.model.book.Book&#45;&gt;jig.tutorial.domain.model.book.BookType</title>
<path fill="none" stroke="black" d="M80.55,-203.82C93.7,-203.82 110.05,-203.82 125.27,-203.82"/>
<polygon fill="black" stroke="black" points="125.56,-207.32 135.56,-203.82 125.56,-200.32 125.56,-207.32"/>
</g>
</g>
</svg>
