<svg width="208px" height="236px"
 viewBox="0.00 0.00 207.86 236.46" xmlns="http://www.w3.org/2000/svg" xmlns:xlink="http://www.w3.org/1999/xlink"><g id="graph0" class="graph" transform=" rotate(0) translate(4 232.46)">
<title>%3</title>
<polygon fill="white" stroke="transparent" points="-4,4 -4,-232.46 203.86,-232.46 203.86,4 -4,4"/>
<text text-anchor="middle" x="99.93" y="-15.62" font-family="Times,serif" font-size="14.00">パッケージ関連図 [2020.2.4]</text>
<!-- summary -->
<g id="node1" class="node">
<title>summary</title>
<polygon fill="none" stroke="black" points="108.59,-228.28 -0.2,-228.28 -0.2,-175 114.59,-175 114.59,-222.28 108.59,-228.28"/>
<polyline fill="none" stroke="black" points="108.59,-228.28 108.59,-222.28 "/>
<polyline fill="none" stroke="black" points="114.59,-222.28 108.59,-222.28 "/>
<text text-anchor="start" x="8" y="-213.26" font-family="Times,serif" font-size="14.00">パッケージ数: 3</text>
<text text-anchor="start" x="8" y="-190.44" font-family="Times,serif" font-size="14.00">関連数: 3</text>
</g>
<!-- jig.tutorial.domain.model.order -->
<g id="node2" class="node">
<title>jig.tutorial.domain.model.order</title>
<polygon fill="#eedd82" stroke="black" points="165.19,-138.82 111.19,-138.82 111.19,-102.82 165.19,-102.82 165.19,-138.82"/>
<text text-anchor="middle" x="138.19" y="-116.62" font-family="Times,serif" font-size="14.00">order</text>
</g>
<!-- jig.tutorial.domain.model.product -->
<g id="node3" class="node">
<title>jig.tutorial.domain.model.product</title>
<polygon fill="#eedd82" stroke="black" points="194.46,-66.82 135.93,-66.82 135.93,-30.82 194.46,-30.82 194.46,-66.82"/>
<text text-anchor="middle" x="165.19" y="-44.62" font-family="Times,serif" font-size="14.00">product</text>
</g>
<!-- jig.tutorial.domain.model.order&#45;&gt;jig.tutorial.domain.model.product -->
<g id="edge1" class="edge">
<title>jig.tutorial.domain.model.order&#45;&gt;jig.tutorial.domain.model.product</title>
<path fill="none" stroke="black" d="M144.87,-102.52C147.91,-94.63 151.58,-85.12 154.96,-76.37"/>
<polygon fill="black" stroke="black" points="158.26,-77.51 158.6,-66.92 151.73,-74.99 158.26,-77.51"/>
</g>
<!-- jig.tutorial.domain.model.shipment -->
<g id="node4" class="node">
<title>jig.tutorial.domain.model.shipment</title>
<polygon fill="#eedd82" stroke="black" points="200.03,-219.64 132.36,-219.64 132.36,-183.64 200.03,-183.64 200.03,-219.64"/>
<text text-anchor="middle" x="166.19" y="-197.44" font-family="Times,serif" font-size="14.00">shipment</text>
</g>
<!-- jig.tutorial.domain.model.shipment&#45;&gt;jig.tutorial.domain.model.order -->
<g id="edge2" class="edge">
<title>jig.tutorial.domain.model.shipment&#45;&gt;jig.tutorial.domain.model.order</title>
<path fill="none" stroke="black" d="M160.12,-183.54C156.49,-173.31 151.79,-160.1 147.68,-148.52"/>
<polygon fill="black" stroke="black" points="150.9,-147.14 144.26,-138.89 144.31,-149.48 150.9,-147.14"/>
</g>
<!-- jig.tutorial.domain.model.shipment&#45;&gt;jig.tutorial.domain.model.product -->
<g id="edge3" class="edge">
<title>jig.tutorial.domain.model.shipment&#45;&gt;jig.tutorial.domain.model.product</title>
<path fill="none" stroke="black" d="M169.35,-183.32C172.5,-163.77 176.57,-131.01 174.19,-102.82 173.48,-94.32 172.13,-85.13 170.68,-76.83"/>
<polygon fill="black" stroke="black" points="174.11,-76.11 168.85,-66.91 167.23,-77.38 174.11,-76.11"/>
</g>
</g>
</svg>
